Coordinates
version=1
nRows=13
nColumns=40
inDegrees=yes

Units are S.I. units (second, meters, Newtons, ...)
Angles are in degrees.

endheader
time	pelvis_tilt	pelvis_list	pelvis_rotation	pelvis_tx	pelvis_ty	pelvis_tz	hip_flexion_r	hip_adduction_r	hip_rotation_r	knee_angle_r	knee_angle_r_beta	ankle_angle_r	subtalar_angle_r	mtp_angle_r	hip_flexion_l	hip_adduction_l	hip_rotation_l	knee_angle_l	knee_angle_l_beta	ankle_angle_l	subtalar_angle_l	mtp_angle_l	lumbar_extension	lumbar_bending	lumbar_rotation	arm_flex_r	arm_add_r	arm_rot_r	elbow_flex_r	pro_sup_r	wrist_flex_r	wrist_dev_r	arm_flex_l	arm_add_l	arm_rot_l	elbow_flex_l	pro_sup_l	wrist_flex_l	wrist_dev_l
     20.92500000	     -5.57555654	     -4.16257797	     -6.01009348	      1.06954614	      0.92945021	      0.42413190	     24.28175400	     -0.73598907	    -14.81655590	      7.47411836	      7.47411836	      2.08174163	     11.52266056	      8.62228656	      8.40715049	     -5.83240943	    -11.67930279	     17.78173146	     17.78173146	     14.78115392	    -12.88031811	     -2.82542060	    -10.84802821	      5.24804246	      2.07632458	    -11.21077379	    -11.25867929	     -5.85211545	     27.42759472	     46.34549052	      0.00000000	      0.00000000	     23.62471391	    -18.71995467	     -0.93957208	     71.55426221	     46.62017522	      0.00000000	      0.00000000
     20.93850000	     -5.51086526	     -4.12813297	     -5.96274329	      1.07160588	      0.92877027	      0.42623678	     23.53020232	     -0.57081803	    -14.29523100	      8.01270673	      8.01270673	      0.02312982	      9.99892148	      2.59257825	      7.65267531	     -5.91481482	    -11.97914368	     17.52739677	     17.52739677	     15.17093886	    -12.21149197	     -3.21732925	    -10.67094744	      5.20680050	      1.85577282	    -11.23972713	    -11.36220179	     -5.71056511	     28.80384525	     46.26558966	      0.00000000	      0.00000000	     23.17301935	    -18.31938508	     -1.69319879	     71.76727718	     46.75608429	      0.00000000	      0.00000000
     20.95200000	     -5.37556658	     -4.07447876	     -5.86227619	      1.07381839	      0.92835377	      0.42832764	     22.94355898	     -0.60504575	    -13.99941219	      9.29076574	      9.29076574	      0.03792989	      9.27105768	      2.00343167	      6.73113813	     -5.90680796	    -12.10234397	     17.07705095	     17.07705095	     15.43195090	    -11.82377549	     -3.18006001	    -10.48187092	      5.11385758	      1.58757295	    -10.80557925	    -11.41233508	     -5.68538767	     29.01829093	     46.25749159	      0.00000000	      0.00000000	     22.99999139	    -18.12630319	     -1.53267137	     71.49538119	     46.74950455	      0.00000000	      0.00000000
     20.96550000	     -5.31793267	     -4.14991533	     -5.64124921	      1.07616428	      0.92779933	      0.43035565	     22.19476916	     -0.49442676	    -13.74004861	     10.10703820	     10.10703820	      0.05072920	      8.92234131	      1.70071851	      6.05036331	     -6.06671315	    -11.98245627	     16.92237225	     16.92237225	     15.76758176	    -11.63423793	     -3.22799557	    -10.22168891	      5.23109250	      1.42285409	    -10.27973253	    -11.43794411	     -5.68404845	     29.25646523	     46.25153327	      0.00000000	      0.00000000	     22.59527406	    -17.61297288	     -1.29424633	     71.27995538	     46.72976085	      0.00000000	      0.00000000
     20.97900000	     -5.09545368	     -4.07631762	     -5.48073889	      1.07860554	      0.92728393	      0.43271440	     21.53368851	     -0.41421427	    -12.35339714	     11.14299597	     11.14299597	     -0.56367072	      6.84922149	     -1.23038652	      5.16927301	     -6.16764958	    -12.47903230	     16.81605404	     16.81605404	     16.65803388	    -10.26232894	     -2.44509659	    -10.08434587	      5.11749527	      1.23657717	     -9.84718644	    -11.57464475	     -5.51587928	     30.00676392	     46.20471442	      0.00000000	      0.00000000	     22.46995727	    -17.40055754	     -1.35970185	     70.17114214	     46.76737698	      0.00000000	      0.00000000
     20.99250000	     -4.92204784	     -4.18799851	     -5.21232954	      1.08111806	      0.92693500	      0.43488420	     20.76428747	     -0.26692747	    -12.04448259	     11.84347229	     11.84347229	     -0.21175931	      6.67617519	     -1.57448815	      4.42997054	     -6.39029303	    -12.32161958	     16.78659780	     16.78659780	     16.93189725	    -10.13392946	     -2.39665463	     -9.94366767	      5.25934410	      1.10303018	     -9.17323030	    -11.69809317	     -5.53827002	     30.32201787	     46.19836844	      0.00000000	      0.00000000	     21.95127724	    -16.96179524	     -1.12274725	     69.82251099	     46.74556339	      0.00000000	      0.00000000
     21.00600000	     -4.72054243	     -4.26386940	     -4.96313015	      1.08355667	      0.92675696	      0.43729091	     20.04416918	     -0.04258680	    -11.13310215	     12.39511407	     12.39511407	     -0.17250445	      5.47828522	     -3.09343978	      3.80400829	     -6.69113681	    -12.47965369	     17.11118725	     17.11118725	     17.98188132	     -9.14710359	     -0.84026649	     -9.81238972	      5.35153632	      0.97001322	     -8.54901717	    -11.87322046	     -5.40560265	     31.15012415	     46.15158938	      0.00000000	      0.00000000	     21.71790793	    -16.54142164	     -1.13229729	     68.35720767	     46.77354264	      0.00000000	      0.00000000
     21.01950000	     -4.55729746	     -4.40812831	     -4.70450879	      1.08590525	      0.92678280	      0.43963919	     19.35443259	      0.17772474	    -10.87159250	     12.78557633	     12.78557633	      0.37621131	      5.37000371	     -3.37250053	      3.26594856	     -7.01308799	    -12.23504733	     17.40198285	     17.40198285	     18.10709848	     -9.18361756	     -0.82273358	     -9.68974457	      5.51196431	      0.99408740	     -7.70400287	    -12.00848010	     -5.43470364	     31.50160529	     46.14572006	      0.00000000	      0.00000000	     21.02756325	    -15.99383819	     -0.86594528	     67.96992477	     46.74584888	      0.00000000	      0.00000000
     21.03300000	     -4.42455625	     -4.65610284	     -4.40946175	      1.08802313	      0.92692165	      0.44227431	     18.78310475	      0.60295142	    -10.21343998	     13.14219573	     13.14219573	      0.89910488	      4.22799889	     -3.88489401	      3.06433965	     -7.57609716	    -12.03596681	     18.26410941	     18.26410941	     18.54415830	     -9.06982177	     -0.23945447	     -9.54618109	      5.81165369	      0.54670328	     -6.54440857	    -12.20706389	     -5.47037441	     32.24889466	     46.12355107	      0.00000000	      0.00000000	     20.40988205	    -15.91017004	     -0.94884996	     66.27883739	     46.73743107	      0.00000000	      0.00000000
     21.04650000	     -4.25703291	     -4.91286488	     -4.17539274	      1.09007351	      0.92734357	      0.44505819	     18.14981933	      1.02421883	     -9.89687833	     13.32327719	     13.32327719	      1.38681109	      3.60368699	     -4.31272673	      2.96435590	     -8.18054672	    -11.74024134	     19.37772519	     19.37772519	     18.81643867	     -9.18772488	      0.13139124	     -9.44452234	      6.04036578	      0.56578198	     -5.48747182	    -12.39624360	     -5.47185300	     32.86099556	     46.10447509	      0.00000000	      0.00000000	     19.79090954	    -15.43183647	     -0.96046751	     65.03740713	     46.72640031	      0.00000000	      0.00000000
     21.06000000	     -4.06945897	     -5.16907102	     -3.92933417	      1.09195878	      0.92796997	      0.44797816	     17.53112869	      1.44883070	     -9.69123782	     13.48978085	     13.48978085	      1.95525621	      3.00871389	     -4.68238827	      3.06138125	     -8.84257011	    -11.43556905	     20.82773353	     20.82773353	     18.84602942	     -9.50252086	      0.30661725	     -9.44970265	      6.29794009	      0.57108238	     -4.30710942	    -12.60408156	     -5.48803687	     33.54818813	     46.08465315	      0.00000000	      0.00000000	     19.05986150	    -15.00895345	     -0.98311609	     63.72155005	     46.71153192	      0.00000000	      0.00000000
     21.07350000	     -3.83304301	     -5.41457984	     -3.73312375	      1.09377512	      0.92874886	      0.45109792	     16.88065962	      1.87124649	     -9.56368741	     13.65190358	     13.65190358	      2.53074702	      2.52179902	     -4.97625894	      3.29204050	     -9.53994785	    -11.07859982	     22.61092091	     22.61092091	     18.72881764	     -9.97996780	      0.23465169	     -9.49533758	      6.49540299	      0.65437959	     -3.03833685	    -12.84310543	     -5.51081124	     34.28545062	     46.06434395	      0.00000000	      0.00000000	     18.28952908	    -14.65062208	     -1.02882361	     62.42646339	     46.69628252	      0.00000000	      0.00000000
     21.08700000	     -3.47880415	     -5.31829527	     -3.68353987	      1.09570504	      0.92997298	      0.45426873	     16.08506944	      1.93988911	     -9.40682722	     13.74590341	     13.74590341	      3.15992651	      2.38473385	     -5.18447076	      3.28814064	     -9.83100215	    -10.91015326	     24.17942879	     24.17942879	     18.30594208	    -10.37642846	      0.11139941	     -9.68452882	      6.27011854	      1.13518481	     -1.82865948	    -13.03051267	     -5.53790087	     34.83082935	     46.05289937	      0.00000000	      0.00000000	     17.19895718	    -14.06996570	     -0.86142853	     61.67339052	     46.66581200	      0.00000000	      0.00000000
